<svg version="1.1" id="Layer_1" xmlns="http://www.w3.org/2000/svg" x="0" y="0" viewBox="0 0 602.3 617.6" xml:space="preserve"><style>.st23{fill:#5f2a2c}.st24{fill:#dea48f}.st25{fill:#232246}.st29{fill:#e8c563}.st30{fill:#fff}.st32{fill:#4b4c4b}.st33{fill:#6dce3a}</style><g opacity=".1"><linearGradient id="SVGID_1_" gradientUnits="userSpaceOnUse" x1="41.344" y1="1080.319" x2="377.263" y2="684.288" gradientTransform="matrix(1 0 0 -1 0 1027.335)"><stop offset="0" stop-color="#2d4d6d"/><stop offset="1" stop-color="#4b7999"/></linearGradient><circle cx="108" cy="25.6" r="7.6" fill="url(#SVGID_1_)"/><linearGradient id="SVGID_2_" gradientUnits="userSpaceOnUse" x1="63.676" y1="1099.262" x2="399.596" y2="703.23" gradientTransform="matrix(1 0 0 -1 0 1027.335)"><stop offset="0" stop-color="#2d4d6d"/><stop offset="1" stop-color="#4b7999"/></linearGradient><circle cx="146.4" cy="25.6" r="7.6" fill="url(#SVGID_2_)"/><linearGradient id="SVGID_3_" gradientUnits="userSpaceOnUse" x1="86.067" y1="1118.254" x2="421.987" y2="722.223" gradientTransform="matrix(1 0 0 -1 0 1027.335)"><stop offset="0" stop-color="#2d4d6d"/><stop offset="1" stop-color="#4b7999"/></linearGradient><circle cx="184.9" cy="25.6" r="7.6" fill="url(#SVGID_3_)"/><linearGradient id="SVGID_4_" gradientUnits="userSpaceOnUse" x1="108.4" y1="1137.196" x2="444.319" y2="741.166" gradientTransform="matrix(1 0 0 -1 0 1027.335)"><stop offset="0" stop-color="#2d4d6d"/><stop offset="1" stop-color="#4b7999"/></linearGradient><circle cx="223.3" cy="25.6" r="7.6" fill="url(#SVGID_4_)"/><linearGradient id="SVGID_5_" gradientUnits="userSpaceOnUse" x1="130.673" y1="1156.09" x2="466.592" y2="760.06" gradientTransform="matrix(1 0 0 -1 0 1027.335)"><stop offset="0" stop-color="#2d4d6d"/><stop offset="1" stop-color="#4b7999"/></linearGradient><circle cx="261.6" cy="25.6" r="7.6" fill="url(#SVGID_5_)"/><linearGradient id="SVGID_6_" gradientUnits="userSpaceOnUse" x1="25.706" y1="1067.055" x2="361.625" y2="671.025" gradientTransform="matrix(1 0 0 -1 0 1027.335)"><stop offset="0" stop-color="#2d4d6d"/><stop offset="1" stop-color="#4b7999"/></linearGradient><circle cx="108" cy="57.3" r="7.6" fill="url(#SVGID_6_)"/><linearGradient id="SVGID_7_" gradientUnits="userSpaceOnUse" x1="48.038" y1="1085.998" x2="383.958" y2="689.966" gradientTransform="matrix(1 0 0 -1 0 1027.335)"><stop offset="0" stop-color="#2d4d6d"/><stop offset="1" stop-color="#4b7999"/></linearGradient><circle cx="146.4" cy="57.3" r="7.6" fill="url(#SVGID_7_)"/><linearGradient id="SVGID_8_" gradientUnits="userSpaceOnUse" x1="70.429" y1="1104.99" x2="406.348" y2="708.959" gradientTransform="matrix(1 0 0 -1 0 1027.335)"><stop offset="0" stop-color="#2d4d6d"/><stop offset="1" stop-color="#4b7999"/></linearGradient><circle cx="184.9" cy="57.3" r="7.6" fill="url(#SVGID_8_)"/><linearGradient id="SVGID_9_" gradientUnits="userSpaceOnUse" x1="92.762" y1="1123.932" x2="428.681" y2="727.902" gradientTransform="matrix(1 0 0 -1 0 1027.335)"><stop offset="0" stop-color="#2d4d6d"/><stop offset="1" stop-color="#4b7999"/></linearGradient><circle cx="223.3" cy="57.3" r="7.6" fill="url(#SVGID_9_)"/><linearGradient id="SVGID_10_" gradientUnits="userSpaceOnUse" x1="115.036" y1="1142.826" x2="450.955" y2="746.795" gradientTransform="matrix(1 0 0 -1 0 1027.335)"><stop offset="0" stop-color="#2d4d6d"/><stop offset="1" stop-color="#4b7999"/></linearGradient><circle cx="261.6" cy="57.3" r="7.6" fill="url(#SVGID_10_)"/><g><linearGradient id="SVGID_11_" gradientUnits="userSpaceOnUse" x1="10.068" y1="1053.791" x2="345.989" y2="657.76" gradientTransform="matrix(1 0 0 -1 0 1027.335)"><stop offset="0" stop-color="#2d4d6d"/><stop offset="1" stop-color="#4b7999"/></linearGradient><circle cx="108" cy="89" r="7.6" fill="url(#SVGID_11_)"/><linearGradient id="SVGID_12_" gradientUnits="userSpaceOnUse" x1="32.4" y1="1072.735" x2="368.321" y2="676.702" gradientTransform="matrix(1 0 0 -1 0 1027.335)"><stop offset="0" stop-color="#2d4d6d"/><stop offset="1" stop-color="#4b7999"/></linearGradient><circle cx="146.4" cy="89" r="7.6" fill="url(#SVGID_12_)"/><linearGradient id="SVGID_13_" gradientUnits="userSpaceOnUse" x1="54.791" y1="1091.726" x2="390.712" y2="695.694" gradientTransform="matrix(1 0 0 -1 0 1027.335)"><stop offset="0" stop-color="#2d4d6d"/><stop offset="1" stop-color="#4b7999"/></linearGradient><circle cx="184.9" cy="89" r="7.6" fill="url(#SVGID_13_)"/><linearGradient id="SVGID_14_" gradientUnits="userSpaceOnUse" x1="77.124" y1="1110.668" x2="413.044" y2="714.637" gradientTransform="matrix(1 0 0 -1 0 1027.335)"><stop offset="0" stop-color="#2d4d6d"/><stop offset="1" stop-color="#4b7999"/></linearGradient><circle cx="223.3" cy="89" r="7.6" fill="url(#SVGID_14_)"/><linearGradient id="SVGID_15_" gradientUnits="userSpaceOnUse" x1="99.398" y1="1129.563" x2="435.317" y2="733.531" gradientTransform="matrix(1 0 0 -1 0 1027.335)"><stop offset="0" stop-color="#2d4d6d"/><stop offset="1" stop-color="#4b7999"/></linearGradient><circle cx="261.6" cy="89" r="7.6" fill="url(#SVGID_15_)"/></g><g><linearGradient id="SVGID_16_" gradientUnits="userSpaceOnUse" x1="-5.519" y1="1040.569" x2="330.4" y2="644.537" gradientTransform="matrix(1 0 0 -1 0 1027.335)"><stop offset="0" stop-color="#2d4d6d"/><stop offset="1" stop-color="#4b7999"/></linearGradient><circle cx="108" cy="120.6" r="7.6" fill="url(#SVGID_16_)"/><linearGradient id="SVGID_17_" gradientUnits="userSpaceOnUse" x1="16.813" y1="1059.512" x2="352.733" y2="663.479" gradientTransform="matrix(1 0 0 -1 0 1027.335)"><stop offset="0" stop-color="#2d4d6d"/><stop offset="1" stop-color="#4b7999"/></linearGradient><circle cx="146.4" cy="120.6" r="7.6" fill="url(#SVGID_17_)"/><linearGradient id="SVGID_18_" gradientUnits="userSpaceOnUse" x1="39.203" y1="1078.504" x2="375.123" y2="682.472" gradientTransform="matrix(1 0 0 -1 0 1027.335)"><stop offset="0" stop-color="#2d4d6d"/><stop offset="1" stop-color="#4b7999"/></linearGradient><circle cx="184.9" cy="120.6" r="7.6" fill="url(#SVGID_18_)"/><linearGradient id="SVGID_19_" gradientUnits="userSpaceOnUse" x1="61.535" y1="1097.446" x2="397.456" y2="701.415" gradientTransform="matrix(1 0 0 -1 0 1027.335)"><stop offset="0" stop-color="#2d4d6d"/><stop offset="1" stop-color="#4b7999"/></linearGradient><circle cx="223.3" cy="120.6" r="7.6" fill="url(#SVGID_19_)"/><linearGradient id="SVGID_20_" gradientUnits="userSpaceOnUse" x1="83.81" y1="1116.34" x2="419.73" y2="720.308" gradientTransform="matrix(1 0 0 -1 0 1027.335)"><stop offset="0" stop-color="#2d4d6d"/><stop offset="1" stop-color="#4b7999"/></linearGradient><circle cx="261.6" cy="120.6" r="7.6" fill="url(#SVGID_20_)"/></g></g><path fill="#fda53d" d="M14.8 89.5h346.1v49.6H14.8z"/><linearGradient id="SVGID_21_" gradientUnits="userSpaceOnUse" x1="372.7" y1="-99.2" x2="602.3" y2="-99.2" gradientTransform="translate(0 408)"><stop offset="0" stop-color="#c7e2ff"/><stop offset="1" stop-color="#a3cbef"/></linearGradient><path d="M372.7 0l127.4 617.6h10.6l-7.9-38.1h90.7l7.9 38.1h.9v-47.1L484.5 0h-10.6l5.6 27.1h-90.7L383.2 0h-10.5zm116.1 511.7h90.7l11.9 57.8h-90.7l-11.9-57.8zm-14-67.8h90.7l11.9 57.8h-90.7l-11.9-57.8zm-14-67.8h90.7l11.9 57.8h-90.7l-11.9-57.8zm-14-67.8h90.7l11.9 57.8h-90.7l-11.9-57.8zm-13.9-67.8h90.7l11.9 57.8h-90.7l-11.9-57.8zm-14-67.8h90.7l11.9 57.8h-90.7l-11.9-57.8zm-14-67.8h90.7l11.9 57.8h-90.7l-11.9-57.8zm-14-67.8h90.7l11.9 57.8h-90.7l-11.9-57.8z" fill="url(#SVGID_21_)"/><path class="st23" d="M495.2 53s-5.5-9-14-7-9.2 9.4-9.2 9.4-2.5-1.2-8.1 3c-3.5 2.6-3.4 12.8 1.1 12.3 0 0-4.1 3.7-1.3 8.1 2.8 4.4 13.9 0 13.9 0L495.2 53z"/><path class="st24" d="M470 72.9c-3.3 16.8-10 31 5.1 35.3 4.1 1.1 6.9 1.2 8.4 1.1.8-.1 1.6.4 1.9 1.1.6 1.3 2.2 7.9.9 10.7 0 0 6.4 5.5 22.1-5.2 0 0-4.7-13.8-4.5-19.7.2-7.5 8.3-31.3 0-35-7.6-3.4-24.6-16.1-32.1 5.1-.7 1.8-1.3 4.1-1.8 6.6z"/><path class="st25" d="M567.7 469.6s9.1 4.5 6.8 11.2c-2.3 6.7-9 14.3-13.1 22.4-3.1 6.1-23.2 6.1-27.8 5-4.5-1.1 15.8-6.1 17.5-19.5s1.7-20.7 1.7-20.7l14.9 1.6z"/><path d="M509.9 111.9s-28.4-.3-38.7 31.7c-4.8 15.1-13.1 46.2-41.7 41.8-42.1-6.4-54.6-9.7-54.6-9.7s-3.4 6.2-2.8 12.3c0 0 42 24.4 66 29.9 21.7 5 35.3.5 45.2-18.9 0 0 12.9 40.7 18 40.1 5.1-.6 64.2-20.3 69.9-29.9 5.6-9.4-27.1-92.4-61.3-97.3z" fill="#1a1a1a"/><linearGradient id="SVGID_22_" gradientUnits="userSpaceOnUse" x1="505.2" y1="-64.191" x2="580.534" y2="-64.191" gradientTransform="translate(0 408)"><stop offset="0" stop-color="#ff7f00"/><stop offset="1" stop-color="#ffd879"/></linearGradient><path d="M568.9 213.8s16.5 36.9 10.2 118.7c-6.3 81.7-9.5 133.7-12.5 137.6-4 5.2-12.6 4.1-13.8 1.8-8.6-15.6-35.6-211.1-47.6-231.8l63.7-26.3z" fill="url(#SVGID_22_)"/><path class="st25" d="M509.9 415.9s10.6 11.2 7.8 15.4c-2.8 4.2-15.2 2.4-25.8 3.1-10.6.7-22.2 1.9-22.2-.1s19.5-7.2 23.8-10.5c4.3-3.2 9.1-5.7 9.1-5.7l7.3-2.2z"/><linearGradient id="SVGID_23_" gradientUnits="userSpaceOnUse" x1="405.257" y1="-93.246" x2="580.627" y2="-93.246" gradientTransform="translate(0 408)"><stop offset="0" stop-color="#ff7f00"/><stop offset="1" stop-color="#ffd879"/></linearGradient><path d="M571.4 208.9s18.9 39.2 2.6 59.7c-16.3 20.5-123.8 44.7-114.1 55 9.4 10 49.1 74.7 51.3 93.8.4 2.9-3.9 4.3-8.3 2.2-24-11.1-104.3-87.3-97.2-105.6 8.3-21.6 95.9-74.7 95.9-74.7l69.8-30.4z" fill="url(#SVGID_23_)"/><path class="st24" d="M375 176.1s-13.7-13-12.7-8.2l1.1 4.8s-16.9-13.7-16.9-7.3 3.2 12.5 6.3 14.1c3.2 1.6 19 8.3 19 8.3l3.2-11.7z"/><path class="st23" d="M484.7 54.2s11.1-11.3 22-4.9c6.8 4 5.3 18.2 4 19.7 0 0 6.7 2 7.1 7.1s-3.9 11.6-13.8 17.2c0 0-6.5 1.8-4.3-8.4 2.2-10.1-3.8-13.1-7.3-7.7-1.7 2.7-1.3 6.6-1.6 8.6-.3 2-3.1 1-3.1 1s3.7-16.5-3.4-18.3-16.6.8-16.6.8l7.4-17.5 9.6 2.4z"/><path class="st23" d="M466.3 88.7l-.6 6.4s-13 11.5-4.2 17.5c8.8 5.9 33.5 1.9 31.7-12.1S490.6 77 490.6 77s-1.2 8.9-4.4 12.8c-3.1 4-6.9-6.6-19.9-1.1z"/><path class="st24" d="M466.2 93.3c-.2 1.7 1.9 3.3 4.9 3.8 2.9.4 5.5-.6 5.8-2.2.2-1.7-1.9-3.3-4.9-3.8-3-.4-5.6.5-5.8 2.2z"/><g><path class="st29" d="M538.2 228.1l1-.1c-.2-1.7-.4-2.7-.4-2.8l-1 .1.4 2.8zM500.6 413l.7-.6c1.4 1.6 2.7 3 3.8 4.1l-.7.7c-1-1.2-2.3-2.6-3.8-4.2zm-5.5-6.3l.7-.6c1.3 1.5 2.5 2.9 3.7 4.2l-.7.6c-1.2-1.3-2.4-2.7-3.7-4.2zm-5.5-6.4l.7-.6c1.2 1.5 2.5 2.9 3.6 4.3l-.7.6c-1.1-1.4-2.3-2.8-3.6-4.3zm-5.4-6.5l.7-.6c1.2 1.5 2.4 2.9 3.6 4.3l-.7.6c-1.2-1.4-2.4-2.8-3.6-4.3zm-5.3-6.5l.8-.6c1.2 1.5 2.4 2.9 3.5 4.3l-.7.6c-1.2-1.3-2.4-2.8-3.6-4.3zm-5.3-6.5l.8-.6c1.2 1.5 2.4 2.9 3.5 4.4l-.8.6c-1.1-1.5-2.3-2.9-3.5-4.4zm-5.3-6.5l.8-.6c1.2 1.5 2.3 2.9 3.5 4.4l-.8.6c-1.1-1.5-2.3-3-3.5-4.4zm-5.2-6.6l.8-.6c1.2 1.4 2.3 2.9 3.5 4.4l-.8.6c-1.2-1.5-2.3-2.9-3.5-4.4zm-5.2-6.6l.8-.6c1.1 1.4 2.3 2.9 3.5 4.4l-.8.6c-1.2-1.5-2.4-2.9-3.5-4.4zm-5.2-6.6l.8-.6c1.1 1.4 2.3 2.9 3.5 4.4l-.8.6c-1.2-1.5-2.4-3-3.5-4.4zm-5.2-6.6l.8-.6c1.1 1.4 2.2 2.9 3.4 4.4l-.8.6c-1.1-1.5-2.3-3-3.4-4.4zm-5.1-6.7l.8-.6c1 1.4 2.2 2.8 3.4 4.4l-.8.6c-1.2-1.5-2.4-3-3.4-4.4zm-5.1-6.7l.8-.6c.8 1.1 2 2.6 3.4 4.5l-.8.6c-1.4-1.9-2.6-3.4-3.4-4.5zm-2.1-4.1c0-1.5.9-2.9 1.7-3.9l.8.6c-.7.9-1.5 2.1-1.5 3.3 0 .4.1.9.3 1.3l-.9.4c-.2-.5-.4-1.1-.4-1.7zm3.5-6.1c.2-.4.4-.6.4-.7-.1-.2-.7-.5-3.7-.9l.1-1c3 .4 4.5.8 4.5 1.7 0 .4-.2.8-.5 1.4l-.8-.5zm-11.7-2.8l.2-.9c1.3.4 3.3.6 5.5.8l-.1 1c-2.2-.3-4.2-.5-5.6-.9zm-1.8-2.4c1-1 2.7-1.5 5.6-1.7l.1 1c-2.6.2-4.2.7-4.9 1.4l-.8-.7zm8.4-1.9h5.6v1h-5.6v-1zm3.2-2.5l.4-.9c3.5 1.6 4.9 2.3 5 3.1l-.9.2c-.2-.5-2.7-1.6-4.5-2.4zm-7.5-3.9l.5-.8c1.6 1 3.5 2 4.9 2.6l-.4.9c-1.4-.7-3.4-1.7-5-2.7zm-3-3.2c0-.9 1.2-.9 1.8-.9.6 0 1.2 0 1.9.1h.9v1h-.9c-.7 0-1.4-.1-1.9-.1s-.7 0-.8.1c.1.1.2.3.4.5l-.7.7c-.5-.6-.7-1-.7-1.4zm7.6.3l-.1-1h.1c1.9 0 3.6-.1 5.3-.4l.1 1c-1.7.3-3.5.4-5.4.4zm8.1-1.8c1.2-.3 2.3-.6 3.4-1 .5-.2 1.2-.4 1.9-.7l.4.9c-.7.3-1.4.6-1.9.8-1.1.4-2.3.7-3.5 1l-.3-1zm7.7-2.9c1.5-.7 3.2-1.5 5.1-2.4l.4.9c-1.9.9-3.6 1.7-5.1 2.4l-.4-.9zm7.6-3.6l5-2.5.4.9-5 2.5-.4-.9zm7.5-3.8c1.6-.8 3.3-1.7 5-2.6l.4.9c-1.7.9-3.4 1.7-5 2.6l-.4-.9zm7.5-3.8c1.6-.8 3.3-1.7 5-2.6l.5.9c-1.7.9-3.3 1.8-5 2.6l-.5-.9zm7.4-4c1.6-.9 3.3-1.7 4.9-2.6l.5.9c-1.7.9-3.3 1.8-4.9 2.6l-.5-.9zm7.4-3.9c1.6-.9 3.3-1.8 4.9-2.7l.5.9c-1.6.9-3.3 1.8-4.9 2.7l-.5-.9zm7.4-4c1.7-.9 3.3-1.8 4.9-2.7l.5.9c-1.6.9-3.3 1.8-4.9 2.7l-.5-.9zm7.4-4c1.7-.9 3.3-1.8 4.9-2.7l.5.8c-1.6.9-3.2 1.8-4.9 2.7l-.5-.8zm7.3-4.1c1.7-.9 3.3-1.8 4.9-2.7l.5.8c-1.6.9-3.2 1.8-4.9 2.7l-.5-.8zm7.4-4c1.7-1 3.4-1.9 4.9-2.8l.5.8c-1.5.9-3.1 1.8-4.9 2.8l-.5-.8zm7.3-4.2c1.5-.8 2.8-1.6 3.9-2.3l.9-.6.5.8c-.3.2-.6.4-1 .6-1.1.6-2.4 1.4-3.9 2.3l-.4-.8zm6.9-4.5c1.3-1.2 2.4-2.6 3.3-4.2l.8.5s-.2.4-1.2 1.9c-.6 1-1.5 1.8-2.3 2.5l-.6-.7zm4.6-6.7c.7-1.6 1.3-3.3 1.8-5.2l.9.2c-.5 1.9-1.1 3.7-1.8 5.4l-.9-.4zm2.4-7.9c.3-1.7.5-3.6.7-5.5l1 .1c-.1 2-.4 3.8-.7 5.6l-1-.2zm.8-8.3v-1.3c0-.3-.1-3.9-.1-4.2l1-.1c.1 1.4.1 2.9.1 4.3v1.3h-1zM508.3 420.7l.6-.8-2.1-1.8-.7.7c1 .8 1.7 1.5 2.2 1.9z"/></g><g><path class="st30" d="M50.1 112.1l-.5 2.8h4v4.2h-4.8l-1.2 6.5h-4.4l1.2-6.5h-2.8l-1.2 6.5H36l1.2-6.5h-3.7v-4.2H38l.5-2.8h-4v-4.3h4.8l1.2-6.5h4.4l-1.2 6.5h2.8l1.2-6.5h4.4l-1.2 6.5h3.8v4.3h-4.6zm-7.7 2.8h2.7l.5-2.8h-2.8l-.4 2.8zM57.4 102.1c0-1 .3-1.7.8-2.2s1.4-.7 2.6-.7 2.1.2 2.6.7.8 1.2.8 2.2c0 1.9-1.2 2.9-3.5 2.9-2.1 0-3.3-1-3.3-2.9zm6.7 23.5h-6.5v-18.8h6.5v18.8zM91.7 125.6v-10.2c0-1.3-.2-2.2-.5-2.9-.3-.6-.9-1-1.7-1-1 0-1.7.4-2.2 1.3s-.7 2.2-.7 4v8.8h-6.5v-10.2c0-1.3-.2-2.2-.5-2.9-.3-.6-.9-1-1.6-1-1 0-1.8.5-2.2 1.4s-.7 2.4-.7 4.4v8.2h-6.5v-18.8h4.9l.8 2.3h.4c.5-.9 1.2-1.5 2.2-2s2-.7 3.2-.7c2.7 0 4.6.8 5.7 2.5h.5c.5-.8 1.3-1.4 2.2-1.8.9-.4 2-.7 3.1-.7 2.2 0 3.9.6 4.9 1.7s1.6 2.9 1.6 5.2v12.2h-6.4v.2zM111.7 125.9c-3.1 0-5.6-.8-7.3-2.5-1.7-1.7-2.6-4-2.6-7.1 0-3.2.8-5.6 2.4-7.3 1.6-1.7 3.9-2.5 6.9-2.5 2.8 0 5 .7 6.6 2.2 1.5 1.5 2.3 3.6 2.3 6.4v2.9h-11.6c0 1.1.4 1.9 1.2 2.5.7.6 1.7.9 3 .9 1.1 0 2.2-.1 3.1-.3 1-.2 2-.6 3.1-1.1v4.7c-1 .5-2.1.9-3.2 1.1s-2.4.1-3.9.1zm-.4-15c-.8 0-1.4.2-1.9.7s-.8 1.2-.9 2.3h5.6c0-.9-.3-1.6-.8-2.2-.5-.6-1.1-.8-2-.8zM135 106.5c.6 0 1.1 0 1.6.1l.4.1-.6 6.1c-.5-.1-1.3-.2-2.2-.2-1.4 0-2.4.3-3.1 1-.6.6-1 1.6-1 2.8v9.2h-6.5v-18.8h4.8l1 3h.3c.5-1 1.3-1.8 2.3-2.4 1-.6 2-.9 3-.9zM154.1 119.8c0 2-.7 3.5-2.1 4.6s-3.3 1.5-5.9 1.5c-1.4 0-2.6-.1-3.6-.2s-2.1-.4-3.2-.8v-5.2c1 .4 2.1.8 3.3 1.1 1.2.3 2.3.4 3.2.4 1.4 0 2.1-.3 2.1-1 0-.3-.2-.6-.6-.9s-1.5-.8-3.4-1.5c-1.7-.7-2.9-1.5-3.6-2.4s-1-2-1-3.4c0-1.7.7-3.1 2-4.1s3.3-1.5 5.7-1.5c1.2 0 2.4.1 3.5.4s2.2.7 3.4 1.2l-1.8 4.2c-.9-.4-1.8-.7-2.7-1-1-.3-1.7-.4-2.4-.4-1.1 0-1.6.3-1.6.8 0 .3.2.6.6.8.4.2 1.4.7 3.2 1.4 1.3.5 2.3 1.1 2.9 1.6s1.1 1.1 1.4 1.8c.5.8.6 1.6.6 2.6zM170 125.6l-1.2-2.5h-.1c-.9 1.1-1.8 1.8-2.7 2.2s-2.1.6-3.5.6c-1.8 0-3.2-.5-4.2-1.6s-1.5-2.6-1.5-4.5c0-2 .7-3.5 2.1-4.5s3.4-1.5 6.1-1.7l3.1-.1v-.3c0-1.5-.8-2.3-2.3-2.3-1.4 0-3.1.5-5.2 1.4l-1.9-4.3c2.2-1.1 5-1.7 8.3-1.7 2.4 0 4.3.6 5.6 1.8 1.3 1.2 2 2.9 2 5v12.3H170v.2zm-4.8-4.2c.8 0 1.5-.2 2-.7.6-.5.8-1.1.8-1.9v-1.5l-1.5.1c-2.1.1-3.2.9-3.2 2.4 0 1 .7 1.6 1.9 1.6zM196.9 116.2c0 3.1-.8 5.5-2.5 7.2s-4 2.6-6.9 2.6-5.1-.9-6.8-2.6c-1.7-1.8-2.5-4.1-2.5-7.1 0-3.1.8-5.4 2.5-7.1s4-2.5 7-2.5c1.8 0 3.5.4 4.9 1.2s2.5 1.9 3.3 3.4c.6 1.2 1 2.9 1 4.9zm-12.2 0c0 1.6.2 2.8.6 3.7.4.8 1.2 1.3 2.2 1.3s1.7-.4 2.1-1.3c.4-.8.6-2.1.6-3.7s-.2-2.8-.6-3.6-1.1-1.2-2.2-1.2c-1 0-1.7.4-2.1 1.2-.4.7-.6 1.9-.6 3.6zM212.4 125.6v-10.3c0-2.5-.7-3.8-2.2-3.8-1.1 0-1.8.4-2.3 1.3s-.8 2.4-.8 4.4v8.3h-6.5V99.7h6.5v3.7c0 1.7-.1 3.6-.3 5.7h.3c.6-1 1.4-1.7 2.2-2.1s1.8-.6 3-.6c2.1 0 3.7.6 4.9 1.8 1.2 1.2 1.8 2.9 1.8 5.1v12.2l-6.6.1zM223.2 102.1c0-1 .3-1.7.8-2.2s1.4-.7 2.6-.7 2.1.2 2.6.7.8 1.2.8 2.2c0 1.9-1.2 2.9-3.5 2.9-2.1 0-3.3-1-3.3-2.9zm6.7 23.5h-6.5v-18.8h6.5v18.8zM245.7 125.9c-1 0-1.8-.2-2.6-.5s-1.5-.9-2.2-1.7h-.3c.2 1.3.3 2.1.3 2.5v7.6h-6.5v-27h5.3l.9 2.4h.3c1.2-1.8 2.9-2.7 5-2.7s3.7.9 4.9 2.6 1.8 4.1 1.8 7.1-.6 5.4-1.9 7.2c-1.2 1.7-2.9 2.5-5 2.5zm-2.2-14.3c-1 0-1.6.3-2 1s-.6 1.7-.6 3v.5c0 1.6.2 2.8.6 3.5s1.1 1.1 2 1.1c.8 0 1.4-.4 1.8-1.1s.6-1.9.6-3.5-.2-2.8-.6-3.5c-.3-.7-.9-1-1.8-1zM270.8 119.8c0 2-.7 3.5-2.1 4.6s-3.3 1.5-5.9 1.5c-1.4 0-2.6-.1-3.6-.2s-2.1-.4-3.2-.8v-5.2c1 .4 2.1.8 3.3 1.1 1.2.3 2.3.4 3.2.4 1.4 0 2.1-.3 2.1-1 0-.3-.2-.6-.6-.9s-1.5-.8-3.4-1.5c-1.7-.7-2.9-1.5-3.6-2.4s-1-2-1-3.4c0-1.7.7-3.1 2-4.1s3.3-1.5 5.7-1.5c1.2 0 2.4.1 3.5.4s2.2.7 3.4 1.2l-1.8 4.2c-.9-.4-1.8-.7-2.7-1-1-.3-1.7-.4-2.4-.4-1.1 0-1.6.3-1.6.8 0 .3.2.6.6.8.4.2 1.4.7 3.2 1.4 1.3.5 2.3 1.1 2.9 1.6s1.1 1.1 1.4 1.8c.5.8.6 1.6.6 2.6zM283.6 120.8c.9 0 1.9-.2 3.1-.6v4.7c-.9.4-1.7.6-2.5.8-.8.2-1.7.2-2.8.2-2.2 0-3.8-.5-4.7-1.6-1-1.1-1.4-2.7-1.4-4.9v-7.8H273V109l2.9-2 1.7-4h4.2v3.8h4.6v4.9h-4.6v7.3c.1 1.2.6 1.8 1.8 1.8zM299.1 125.9c-3.1 0-5.6-.8-7.3-2.5-1.7-1.7-2.6-4-2.6-7.1 0-3.2.8-5.6 2.4-7.3 1.6-1.7 3.9-2.5 6.9-2.5 2.8 0 5 .7 6.6 2.2 1.5 1.5 2.3 3.6 2.3 6.4v2.9h-11.6c0 1.1.4 1.9 1.2 2.5.7.6 1.7.9 3 .9 1.1 0 2.2-.1 3.1-.3 1-.2 2-.6 3.1-1.1v4.7c-1 .5-2.1.9-3.2 1.1s-2.4.1-3.9.1zm-.4-15c-.8 0-1.4.2-1.9.7s-.8 1.2-.9 2.3h5.6c0-.9-.3-1.6-.8-2.2-.5-.6-1.1-.8-2-.8zM322.4 106.5c.6 0 1.1 0 1.6.1l.4.1-.6 6.1c-.5-.1-1.3-.2-2.2-.2-1.4 0-2.4.3-3.1 1-.6.6-1 1.6-1 2.8v9.2H311v-18.8h4.8l1 3h.3c.5-1 1.3-1.8 2.3-2.4 1.1-.6 2-.9 3-.9zM341.5 119.8c0 2-.7 3.5-2.1 4.6s-3.3 1.5-5.9 1.5c-1.4 0-2.6-.1-3.6-.2s-2.1-.4-3.2-.8v-5.2c1 .4 2.1.8 3.3 1.1 1.2.3 2.3.4 3.2.4 1.4 0 2.1-.3 2.1-1 0-.3-.2-.6-.6-.9s-1.5-.8-3.4-1.5c-1.7-.7-2.9-1.5-3.6-2.4s-1-2-1-3.4c0-1.7.7-3.1 2-4.1s3.3-1.5 5.7-1.5c1.2 0 2.4.1 3.5.4s2.2.7 3.4 1.2l-1.8 4.2c-.9-.4-1.8-.7-2.7-1-1-.3-1.7-.4-2.4-.4-1.1 0-1.6.3-1.6.8 0 .3.2.6.6.8.4.2 1.4.7 3.2 1.4 1.3.5 2.3 1.1 2.9 1.6s1.1 1.1 1.4 1.8c.5.8.6 1.6.6 2.6z"/></g><g><path class="st32" d="M67.1 180.1c-1.5 0-3.3-.2-4.6-1-1.7-.9-1.7-2.4-1.7-3.3v-5.3c-.1-1.7-3.6-1.8-4.4-1.9-.3 0-1.1 0-1.1-1 0-.8.6-1 .8-1 .7 0 2.3 0 3.5-.5s1.2-1 1.2-2.1v-2.9-2.7c.5-2.8 4-3.2 6.3-3.2.6 0 1.3 0 1.3 1 0 .8-.6 1-.8 1-1.1 0-3.9.1-4.5 1.3-.1.3-.1 1.5-.1 2.3v4.2c0 .8-.5 1.9-1.9 2.7 1.8 1 1.9 2.3 1.9 3.1v5.2c0 1 0 2.1 4.4 2.2.3 0 1.1 0 1.1 1-.1.9-.9.9-1.4.9zM79.6 177.6c-4 0-7-3.3-7-7.1 0-2.8 1.9-7.2 7.4-7.2 1.4 0 4.8 0 4.8 2.3 0 .9-.7 1.5-1.4 1.5s-1.4-.4-1.4-1.6c0-.3-1.2-.3-1.9-.3-4.3 0-5.2 3.7-5.2 5.2 0 2.9 2.3 5.2 5 5.2 2.4 0 3-1.5 3.2-1.9.2-.6.5-.7 1.1-.7.2 0 1.1 0 1.1.9-.1.6-1.2 3.7-5.7 3.7zM95.4 177.6c-3.5 0-6.6-3-6.6-7.1 0-4 3-7.2 6.6-7.2s6.6 3.2 6.6 7.2-3 7.1-6.6 7.1zm0-12.3c-2.3 0-4.4 2.1-4.4 5 0 3 2 5.4 4.4 5.4s4.4-2.4 4.4-5.4c0-2.9-2.1-5-4.4-5zM119 177.4h-4.9c-.4 0-1.3 0-1.3-1s.8-1 1.3-1h1.2v-7.3c0-1.9-.4-2.8-2.1-2.8-1.6 0-4 1.2-4 4.4v5.7h1.4c.5 0 1.3 0 1.3 1s-.8 1-1.3 1h-5.1c-.4 0-1.3 0-1.3-1s.8-1 1.3-1h1.4v-9.9h-1.4c-.4 0-1.3 0-1.3-1s.8-1 1.3-1h2.3c1.3 0 1.3.5 1.3 1.5.6-.6 2-1.7 4.2-1.7 2.5 0 4.2 1.4 4.2 4.6v7.4h1.4c.5 0 1.3 0 1.3 1 0 1.1-.8 1.1-1.2 1.1zM130.1 177.6c-2.3 0-4.5-1.2-4.5-4.2v-7.8h-2.8c-.5 0-1.3 0-1.3-1s.8-1 1.3-1h2.8V161c0-.6 0-1.3 1.1-1.3s1.1.7 1.1 1.3v2.6h5.2c.5 0 1.3 0 1.3 1s-.8 1-1.3 1h-5.2v7.6c0 .8 0 2.5 2.5 2.5.7 0 2.6-.3 2.6-2.3 0-.5 0-1.2 1.1-1.2s1.1.7 1.1 1.2c-.1 2.8-2.7 4.2-5 4.2zM146.6 177.6c-4.1 0-7.4-3.2-7.4-7.1 0-3.9 3.1-7.1 6.9-7.1 4.2 0 6.2 3.1 6.2 6.8 0 1.2-.6 1.2-1.3 1.2h-9.5c.5 2.8 2.9 4.4 5.3 4.4.9 0 2.6-.3 3.3-1.9.2-.6.5-.7 1.1-.7.2 0 1.1 0 1.1.9 0 .6-1.5 3.5-5.7 3.5zm-.5-12.3c-2.2 0-4.1 1.8-4.6 4.1h8.5c-.3-3.3-2.2-4.1-3.9-4.1zM169.4 177.4h-4.9c-.4 0-1.3 0-1.3-1s.8-1 1.3-1h1.2v-7.3c0-1.9-.4-2.8-2.1-2.8-1.6 0-4 1.2-4 4.4v5.7h1.4c.5 0 1.3 0 1.3 1s-.8 1-1.3 1h-5.1c-.4 0-1.3 0-1.3-1s.8-1 1.3-1h1.4v-9.9h-1.4c-.4 0-1.3 0-1.3-1s.8-1 1.3-1h2.3c1.3 0 1.3.5 1.3 1.5.6-.6 2-1.7 4.2-1.7 2.5 0 4.2 1.4 4.2 4.6v7.4h1.4c.5 0 1.3 0 1.3 1 0 1.1-.8 1.1-1.2 1.1zM180.5 177.6c-2.3 0-4.5-1.2-4.5-4.2v-7.8h-2.8c-.5 0-1.3 0-1.3-1s.8-1 1.3-1h2.8V161c0-.6 0-1.3 1.1-1.3s1.1.7 1.1 1.3v2.6h5.2c.5 0 1.3 0 1.3 1s-.8 1-1.3 1h-5.2v7.6c0 .8 0 2.5 2.5 2.5.7 0 2.6-.3 2.6-2.3 0-.5 0-1.2 1.1-1.2s1.1.7 1.1 1.2c-.1 2.8-2.7 4.2-5 4.2zM196.2 167.6c-1 0-2-.8-2-2 0-1 .8-2 2-2 1 0 2 .8 2 2 0 1-.8 2-2 2zm0 9.8c-1 0-2-.8-2-2 0-1 .8-2 2-2 1 0 2 .8 2 2 0 1-.8 2-2 2z"/><path class="st33" d="M211.2 165.8c0 .5-.2 1.1-1 1.1-.9 0-1-.7-1-1.2l-.4-6.5c-.1-1.4.8-1.8 1.4-1.8.4 0 1.5.3 1.4 1.8l-.4 6.6zm5.7 0c0 .5-.2 1.1-1 1.1-.9 0-1-.7-1-1.2l-.4-6.5c-.1-1.4.8-1.8 1.4-1.8.4 0 1.5.3 1.4 1.8l-.4 6.6zM230.5 177.8c-4.2 0-7.7-4.3-7.7-10.1s3.6-10.1 7.7-10.1c1.6 0 3.1.6 4.2 1.5.4-.8.4-.9.5-1 .2-.2.3-.5.9-.5 1 0 1 .8 1 1.3v4.4c0 .6 0 1.3-1.1 1.3-1 0-1-.5-1.1-1.1-.4-2.6-2.2-4.1-4.1-4.1-2.8 0-5.6 3.4-5.6 8.2s2.8 8.2 5.7 8.2c1.3 0 3.9-.8 4.1-3.9.1-.9.8-.9 1.1-.9.4 0 1.1 0 1.1 1.1-.3 2.8-3 5.7-6.7 5.7zM247.3 177.8c-2 0-4-.5-5.3-1.5-.3 1-.5 1.5-1.2 1.5-1 0-1-.8-1-1.3v-4.2c0-.6 0-1.3 1.1-1.3 1 0 1.1.6 1.1 1.1 0 .6.2 1.9 1.5 2.8 1.3.9 2.8 1 3.7 1 2.5 0 3.9-1.9 3.9-3.6 0-2.8-2.7-3.4-3.6-3.6l-3.7-.9c-2.7-.8-4.1-2.9-4.1-5 0-2.7 2.4-5.2 6-5.2 1.4 0 3.2.4 4.5 1.5.3-1 .4-1.5 1.2-1.5 1 0 1 .8 1 1.3v4.2c0 .6 0 1.3-1.1 1.3-.6 0-1-.2-1.1-.9-.2-1-.7-4-4.4-4-2.3 0-3.8 1.5-3.8 3.2 0 1.5 1.2 2.6 2.6 3l2.6.6c2.5.6 3.4.8 4.7 2.1.4.4 1.5 1.8 1.5 3.8 0 2.7-2.4 5.6-6.1 5.6zM264.1 177.8c-2 0-4-.5-5.3-1.5-.3 1-.5 1.5-1.2 1.5-1 0-1-.8-1-1.3v-4.2c0-.6 0-1.3 1.1-1.3 1 0 1.1.6 1.1 1.1 0 .6.2 1.9 1.5 2.8 1.3.9 2.8 1 3.7 1 2.5 0 3.9-1.9 3.9-3.6 0-2.8-2.7-3.4-3.6-3.6l-3.7-.9c-2.7-.8-4.1-2.9-4.1-5 0-2.7 2.4-5.2 6-5.2 1.4 0 3.2.4 4.5 1.5.3-1 .4-1.5 1.2-1.5 1 0 1 .8 1 1.3v4.2c0 .6 0 1.3-1.1 1.3-.6 0-1-.2-1.1-.9-.2-1-.7-4-4.4-4-2.3 0-3.8 1.5-3.8 3.2 0 1.5 1.2 2.6 2.6 3l2.6.6c2.5.6 3.4.8 4.7 2.1.4.4 1.5 1.8 1.5 3.8 0 2.7-2.4 5.6-6.1 5.6zM278.4 165.8c0 .5-.2 1.1-1 1.1-.9 0-1-.7-1-1.2l-.4-6.5c-.1-1.4.8-1.8 1.4-1.8.4 0 1.5.3 1.4 1.8l-.4 6.6zm5.7 0c0 .5-.2 1.1-1 1.1-.9 0-1-.7-1-1.2l-.4-6.5c-.1-1.4.8-1.8 1.4-1.8.4 0 1.5.3 1.4 1.8l-.4 6.6z"/><path class="st32" d="M295.4 181.8c-.5 0-1-.5-1-1s.4-.7.6-.8c.5-.3 1.7-.9 2.1-2.6-1.6 0-2.1-1.1-2.1-2 0-1.1.8-2 2-2s2.2 1 2.2 3.1c0 3.6-3.1 5.3-3.8 5.3zm1.6-14.2c-1 0-2-.8-2-2 0-1 .8-2 2-2 1 0 2 .8 2 2 0 1-.8 2-2 2zM319.6 168.6c-.8 0-2.3 0-3.5.5s-1.2 1-1.2 2.1v5.6c-.5 2.6-3.5 3.2-6.3 3.2-.5 0-1.3 0-1.3-1 0-.8.6-1 .8-1 4.6-.1 4.6-1.2 4.6-2.1v-5.6c0-.1.1-1.6 1.9-2.7-1.4-.7-1.9-1.8-1.9-3v-5.2c0-1.1 0-2.2-4.4-2.3-.4 0-1.1-.1-1.1-1 0-1 .8-1 1.3-1 1.1 0 3.1.1 4.7 1 1.7.9 1.7 2.4 1.7 3.3v5.3c.1 1.8 3.6 1.9 4.4 1.9.3 0 1.1 0 1.1 1 0 .8-.6 1-.8 1z"/></g><path fill="#fcc63f" d="M0 129.1l14.8 10V89.5L0 79.5z"/><path fill="#ef993a" d="M342.9 79.5H0l14.8 10h346.1z"/></svg>